<?xml version="1.0" encoding="UTF-8"?>
<svg width="18px" height="18px" viewBox="0 0 18 18" version="1.1" xmlns="http://www.w3.org/2000/svg" xmlns:xlink="http://www.w3.org/1999/xlink" fill="#cecece">
  <g transform="translate(-374.000000, -525.000000)">
    <g transform="translate(374.000000, 525.000000)">
      <path d="M17,0 C17.5522847,0 18,0.44771525 18,1 L18,17 C18,17.5522847 17.5522847,18 17,18 L1,18 C0.44771525,18 1.12271303e-14,17.5522847 1.12271303e-14,17 L1.12271303e-14,1 C1.12271303e-14,0.44771525 0.44771525,0 1,0 L17,0 Z M2.90737903,7.30327593 L1,11.117 L1,17 L17,17 L17,13.5 L12,13.5 C11.8784865,13.5 11.7622437,13.4558113 11.6720254,13.3774087 L11.6095656,13.3123475 L9.79282801,11.0414255 L7.08219949,11.493197 C6.8395103,11.5336452 6.60346201,11.3915249 6.52565835,11.1581139 L6.52565835,11.1581139 L5.70796519,8.7050344 L4.2236068,9.4472136 C3.95145526,9.58328937 3.62187845,9.44677418 3.52565835,9.15811388 L3.52565835,9.15811388 L2.90737903,7.30327593 Z M17,12.5 L17,1 L1,1 L1,8.88 L2.5527864,5.7763932 C2.73776933,5.40642735 3.25235921,5.41563297 3.43771221,5.75718748 L3.47434165,5.84188612 L4.29203481,8.2949656 L5.7763932,7.5527864 C6.04854474,7.41671063 6.37812155,7.55322582 6.47434165,7.84188612 L6.47434165,7.84188612 L7.3392343,10.4365641 L9.91780051,10.006803 C10.0964731,9.97702427 10.2772789,10.0462081 10.3904344,10.1876525 L10.3904344,10.1876525 L12.2403124,12.5 L17,12.5 Z M12.5,2.5 C13.6045695,2.5 14.5,3.3954305 14.5,4.5 C14.5,5.6045695 13.6045695,6.5 12.5,6.5 C11.3954305,6.5 10.5,5.6045695 10.5,4.5 C10.5,3.3954305 11.3954305,2.5 12.5,2.5 Z M12.5,3.5 C11.9477153,3.5 11.5,3.94771525 11.5,4.5 C11.5,5.05228475 11.9477153,5.5 12.5,5.5 C13.0522847,5.5 13.5,5.05228475 13.5,4.5 C13.5,3.94771525 13.0522847,3.5 12.5,3.5 Z"></path>
    </g>
  </g>
</svg>
